<svg width="62" height="64" viewBox="0 0 62 64" fill="none" xmlns="http://www.w3.org/2000/svg">
<path d="M56.0121 11.023C55.2138 10.4217 52.5529 9.62007 50.8233 9.15243C50.4242 7.61589 50.025 6.61381 49.892 6.07936C48.4285 2.33823 47.9628 1.87059 44.171 1.20253C40.7119 0.60128 35.5231 0.400862 30.4009 0.60128C25.1456 0.467668 20.0233 0.60128 16.6307 1.20253C12.8389 1.87059 12.3732 2.33823 10.9762 6.07936C10.7767 6.547 10.4441 7.61589 10.0449 9.08562C8.38186 9.55326 5.45486 10.4217 4.65659 11.023C3.65875 11.8915 -0.864793 19.6409 0.532183 21.6451C1.86264 23.7161 3.32613 24.7182 4.59006 23.7829C5.854 22.714 7.0514 13.2944 7.0514 13.2944C7.84968 13.2944 8.5149 13.3612 9.11361 13.3612C7.45054 21.5115 5.78747 35.4071 8.44838 51.975C8.78099 53.7787 9.91188 54.9144 11.841 55.7161C11.841 55.8497 11.841 56.0501 11.841 56.1837V59.9917C11.841 62.1295 13.6371 64 15.8324 64C18.0276 64 19.8238 62.1963 19.8238 59.9917V56.6514C22.6177 56.6514 26.5425 56.6514 30.6004 56.6514C34.4587 56.6514 38.2505 56.6514 40.978 56.6514V59.9249C40.978 62.0627 42.7741 63.9332 44.9693 63.9332C47.2311 63.9332 48.9607 62.1295 48.9607 59.9249V56.1837C48.9607 56.0501 48.9607 55.9833 48.9607 55.7829C51.0894 54.9812 52.4199 53.7787 52.7525 51.9082C55.3469 35.3403 53.7503 21.4447 52.0872 13.2944C52.6194 13.2944 53.2181 13.2944 53.9499 13.2276C53.9499 13.2276 55.2138 22.6472 56.4112 23.7161C57.7417 24.6514 59.2052 23.6493 60.4691 21.5783C61.6665 19.6409 57.143 11.8915 56.0121 11.023ZM24.7464 3.47393H36.8536C38.184 3.47393 38.1175 4.14199 38.1175 5.07727C38.1175 5.94575 38.2505 6.68061 36.8536 6.68061H24.7464C23.416 6.68061 23.4825 6.01255 23.4825 5.07727C23.4825 4.14199 23.416 3.47393 24.7464 3.47393ZM21.4868 51.4405C20.622 52.2422 15.0341 51.0397 13.3045 50.7725C11.6415 50.4384 11.7745 50.7057 11.1758 49.3695C10.5771 48.0334 10.7767 44.5595 11.1758 44.4259C11.5749 44.2923 11.5084 44.2255 13.105 44.6263C17.3624 45.9624 22.2851 49.2359 21.4868 51.4405ZM49.892 49.3027C49.2933 50.6389 49.4263 50.3716 47.7633 50.7057C46.1002 51.0397 40.4458 52.2422 39.581 51.3737C38.7162 49.2359 43.6389 45.9624 48.0294 44.6263C49.6259 44.0919 49.5594 44.1587 49.9585 44.4259C50.2911 44.4927 50.4907 48.0334 49.892 49.3027ZM50.8233 33.6702C50.025 36.0752 48.8276 37.6117 46.5659 37.8789C44.3041 38.0794 17.2294 38.213 14.3024 37.7453C11.3754 37.3445 10.8432 35.9416 10.0449 33.5366C9.24665 31.1315 11.3754 17.0355 12.1071 14.4969C12.8389 11.9583 13.1715 11.023 16.3646 10.2881C19.4246 9.62007 42.2419 9.75368 44.5037 10.4217C46.7654 11.0898 47.8963 12.0251 48.7611 14.6305C49.4929 17.2359 51.5551 31.2652 50.8233 33.6702Z" fill="#F2F2F2"/>
</svg>
