<svg width="98" height="98" viewBox="0 0 98 98" fill="none" xmlns="http://www.w3.org/2000/svg">
<circle cx="49" cy="49" r="49" fill="url(#paint0_linear)"/>
<path d="M40.7969 43.3077C40.0932 43.4515 39.4105 43.6759 38.801 44.0688L37.533 42.0981C38.5259 41.4584 39.637 41.0458 40.7969 40.88V31.6331L29 33.9774V66.8356L40.7969 64.492V43.3077ZM36.1094 49H33.7656C33.7656 47.1403 34.3722 45.3859 35.5212 43.928L37.3614 45.3791C36.542 46.4194 36.1094 47.6713 36.1094 49Z" fill="#F5F5F5"/>
<path d="M54.8594 54.7382V33.5541L43.1406 31.601V64.446L54.8594 66.399V57.0918C53.3157 56.8674 51.8447 56.2282 50.6605 55.2015L52.1963 53.4299C52.9688 54.1003 53.8782 54.5406 54.8594 54.7382ZM44.4029 43.6682L45.3779 41.5374C47.043 42.2984 48.422 43.6133 49.2609 45.2395L47.178 46.3153C46.5784 45.1525 45.5931 44.213 44.4029 43.6682ZM48.9268 53.1028C48.208 51.8622 47.8281 50.4431 47.8281 49C47.8281 48.7174 47.8087 48.4381 47.7686 48.1669L50.0895 47.8327C50.1433 48.2138 50.1719 48.6029 50.1719 49C50.1719 50.0311 50.4431 51.0439 50.9547 51.9285L48.9268 53.1028Z" fill="#F5F5F5"/>
<path d="M57.2031 66.367L69 64.0227V31.1644L57.2031 33.508V66.367ZM61.8906 49.0023C61.8906 49.0008 61.8906 49.0015 61.8906 49.0001C61.8906 48.8856 61.8906 46.6563 61.8906 46.6563H64.2344V49.0001C64.2352 49.7844 64.1244 50.5618 63.9059 51.3095L61.656 50.6503C61.8128 50.117 61.8918 49.5631 61.8906 49.0023ZM60.8046 52.399L62.7135 53.7585C61.648 55.2531 60.0962 56.3586 58.3419 56.8736L57.6827 54.6236C58.9346 54.2575 60.0435 53.4667 60.8046 52.399Z" fill="#F5F5F5"/>
<defs>
<linearGradient id="paint0_linear" x1="49" y1="62.9313" x2="-134.138" y2="62.9313" gradientUnits="userSpaceOnUse">
<stop stop-color="#9B39AD"/>
<stop offset="1" stop-color="#FA71CD"/>
</linearGradient>
</defs>
</svg>
