<svg width="98" height="98" viewBox="0 0 98 98" fill="none" xmlns="http://www.w3.org/2000/svg">
<circle cx="49" cy="49" r="49" fill="url(#paint0_linear)"/>
<g clip-path="url(#clip0)">
<path d="M68.6567 36.0816L66.7036 34.1284C66.4838 33.9087 66.1858 33.7852 65.875 33.7852H64.3801C64.218 31.1302 62.0076 29.0195 59.3125 29.0195H38.6875C35.9924 29.0195 33.782 31.1302 33.6199 33.7852H32.125C31.8141 33.7852 31.5161 33.9087 31.2964 34.1284L29.3433 36.0816C29.1234 36.3013 29 36.5994 29 36.9102V42.7695C29 43.4167 29.5247 43.9414 30.1719 43.9414C30.8191 43.9414 31.3438 43.4167 31.3438 42.7695V37.3955L32.6104 36.1289H33.6094V50.2608C38.4614 51.2214 59.6746 51.1945 64.3906 50.2608V36.1289H65.3896L66.6562 37.3955V42.7695C66.6562 43.4167 67.1809 43.9414 67.8281 43.9414C68.4753 43.9414 69 43.4167 69 42.7695V36.9102C69 36.5994 68.8766 36.3013 68.6567 36.0816Z" fill="#F5F5F5"/>
<path d="M34.9375 66.5516V67.0274C34.9375 68.1048 35.8133 68.9805 36.8906 68.9805H40.5625C41.6398 68.9805 42.5156 68.1048 42.5156 67.0274V66.5977C35.188 66.5822 35.4807 66.6328 34.9375 66.5516Z" fill="#F5F5F5"/>
<path d="M55.4844 66.5977V67.0274C55.4844 68.1048 56.3602 68.9805 57.4375 68.9805H61.1094C62.1867 68.9805 63.0625 68.1048 63.0625 67.0274V66.5516C62.5194 66.6328 62.8127 66.5822 55.4844 66.5977Z" fill="#F5F5F5"/>
<path d="M33.6094 52.6407V56.975L40.997 58.2555C41.4274 58.3301 41.7805 58.6379 41.9134 59.0539L43.573 64.254H54.4273L56.0869 59.0539C56.2197 58.6378 56.5728 58.3301 57.0032 58.2555L64.3906 56.975V52.6407C58.7462 53.5418 39.2567 53.5422 33.6094 52.6407ZM52.5156 58.3945H45.4844C44.8372 58.3945 44.3125 57.8698 44.3125 57.2226C44.3125 56.5754 44.8372 56.0507 45.4844 56.0507H52.5156C53.1628 56.0507 53.6875 56.5754 53.6875 57.2226C53.6875 57.8698 53.1628 58.3945 52.5156 58.3945Z" fill="#F5F5F5"/>
<path d="M56.8873 64.2539H62.4375C63.5144 64.2539 64.3906 63.3777 64.3906 62.3007V59.3536L58.1034 60.4434L56.8873 64.2539Z" fill="#F5F5F5"/>
<path d="M41.1127 64.2539L39.8966 60.4434L33.6094 59.3536V62.3007C33.6094 63.3777 34.4855 64.2539 35.5625 64.2539H41.1127Z" fill="#F5F5F5"/>
</g>
<defs>
<linearGradient id="paint0_linear" x1="49" y1="62.9313" x2="-134.138" y2="62.9313" gradientUnits="userSpaceOnUse">
<stop stop-color="#9B39AD"/>
<stop offset="1" stop-color="#FA71CD"/>
</linearGradient>
<clipPath id="clip0">
<rect width="40" height="40" fill="white" transform="translate(29 29)"/>
</clipPath>
</defs>
</svg>
