<svg width="98" height="98" viewBox="0 0 98 98" fill="none" xmlns="http://www.w3.org/2000/svg">
<circle cx="49" cy="49" r="49" fill="url(#paint0_linear)"/>
<path d="M49 29C41.9715 29 36.1094 34.6617 36.1094 41.8906C36.1094 44.6408 36.9358 47.0931 38.5218 49.3911L48.0135 64.202C48.474 64.922 49.527 64.9206 49.9865 64.202L59.5194 49.3407C61.0713 47.1469 61.8906 44.5709 61.8906 41.8906C61.8906 34.7827 56.1079 29 49 29ZM49 47.75C45.7693 47.75 43.1406 45.1213 43.1406 41.8906C43.1406 38.6599 45.7693 36.0312 49 36.0312C52.2307 36.0312 54.8594 38.6599 54.8594 41.8906C54.8594 45.1213 52.2307 47.75 49 47.75Z" fill="#F5F5F5"/>
<path d="M58.1613 55.9292L52.2604 65.1547C50.733 67.5362 47.2585 67.5283 45.7384 65.157L39.828 55.9316C34.6277 57.134 31.4219 59.3365 31.4219 61.9687C31.4219 66.536 40.4788 68.9999 49 68.9999C57.5212 68.9999 66.5781 66.536 66.5781 61.9687C66.5781 59.3347 63.3679 57.1309 58.1613 55.9292Z" fill="#F5F5F5"/>
<defs>
<linearGradient id="paint0_linear" x1="49" y1="62.9313" x2="-134.138" y2="62.9313" gradientUnits="userSpaceOnUse">
<stop stop-color="#9B39AD"/>
<stop offset="1" stop-color="#FA71CD"/>
</linearGradient>
</defs>
</svg>
