<svg width="62" height="64" fill="none" xmlns="http://www.w3.org/2000/svg"><path d="M56.012 11.023c-.798-.601-3.46-1.403-5.189-1.87-.399-1.537-.798-2.54-.931-3.074-1.464-3.74-1.93-4.208-5.721-4.876C40.711.6 35.523.4 30.401.6c-5.255-.133-10.378 0-13.77.602-3.792.668-4.258 1.135-5.655 4.876-.2.468-.532 1.537-.931 3.007-1.663.467-4.59 1.336-5.388 1.937-.998.869-5.522 8.618-4.125 10.622 1.33 2.071 2.794 3.073 4.058 2.138 1.264-1.069 2.461-10.489 2.461-10.489.799 0 1.464.067 2.063.067-1.663 8.15-3.327 22.046-.666 38.614.333 1.804 1.464 2.94 3.393 3.741v4.276c0 2.138 1.796 4.008 3.991 4.008 2.196 0 3.992-1.804 3.992-4.008v-3.34h21.154v3.273c0 2.138 1.796 4.008 3.991 4.008 2.262 0 3.992-1.803 3.992-4.008v-3.741-.401c2.128-.802 3.459-2.004 3.791-3.875 2.595-16.568.998-30.463-.665-38.614.532 0 1.131 0 1.863-.066 0 0 1.264 9.42 2.461 10.488 1.33.935 2.794-.067 4.058-2.138 1.197-1.937-3.326-9.686-4.457-10.555zm-31.266-7.55h12.108c1.33 0 1.264.669 1.264 1.604 0 .869.133 1.604-1.264 1.604H24.746c-1.33 0-1.263-.668-1.263-1.604 0-.935-.067-1.603 1.263-1.603zm-3.26 47.968c-.864.801-6.452-.401-8.181-.669-1.663-.334-1.53-.066-2.13-1.402-.598-1.337-.398-4.81 0-4.944.4-.134.333-.2 1.93.2 4.257 1.336 9.18 4.61 8.382 6.815zm28.406-2.138c-.599 1.336-.466 1.069-2.129 1.403-1.663.334-7.317 1.536-8.182.668-.865-2.138 4.058-5.412 8.448-6.748 1.597-.534 1.53-.467 1.93-.2.332.067.532 3.607-.067 4.877zm.931-15.633c-.798 2.405-1.995 3.942-4.257 4.209-2.262.2-29.337.334-32.264-.134-2.927-.4-3.459-1.803-4.257-4.208-.798-2.405 1.33-16.502 2.062-19.04.732-2.539 1.065-3.474 4.258-4.209 3.06-.668 25.877-.534 28.139.134 2.261.668 3.392 1.603 4.257 4.208.732 2.606 2.794 16.635 2.062 19.04z" fill="#F2F2F2"/></svg>