<svg width="98" height="98" fill="none" xmlns="http://www.w3.org/2000/svg"><circle cx="49" cy="49" r="49" fill="url(#paint0_linear)"/><path d="M40.797 43.308c-.704.144-1.386.368-1.996.76l-1.268-1.97a8.147 8.147 0 013.264-1.218v-9.247L29 33.977v32.859l11.797-2.344V43.308zM36.109 49h-2.343c0-1.86.606-3.614 1.755-5.072l1.84 1.451A5.795 5.795 0 0036.11 49zM54.86 54.738V33.554l-11.72-1.953v32.845l11.72 1.953v-9.307c-1.544-.225-3.015-.864-4.2-1.89l1.536-1.772a5.78 5.78 0 002.663 1.308zm-10.457-11.07l.975-2.13a8.244 8.244 0 013.883 3.702l-2.083 1.075a5.896 5.896 0 00-2.775-2.647zm4.524 9.435A8.193 8.193 0 0147.828 49c0-.283-.02-.562-.06-.833l2.322-.334c.053.38.082.77.082 1.167 0 1.031.271 2.044.783 2.928l-2.028 1.175zM57.203 66.367L69 64.023V31.164l-11.797 2.344v32.859zm4.688-17.365V49v-2.344h2.343V49c.001.784-.11 1.562-.328 2.31l-2.25-.66a5.792 5.792 0 00.235-1.648zM60.805 52.4l1.909 1.36a8.245 8.245 0 01-4.372 3.115l-.66-2.25a5.882 5.882 0 003.123-2.225z" fill="#F5F5F5"/><defs><linearGradient id="paint0_linear" x1="49" y1="62.931" x2="-134.138" y2="62.931" gradientUnits="userSpaceOnUse"><stop stop-color="#9B39AD"/><stop offset="1" stop-color="#FA71CD"/></linearGradient></defs></svg>