<svg xmlns="http://www.w3.org/2000/svg" viewBox="0 0 133 40"><defs><style>.cls-1{fill:#ffba13}.cls-2,.cls-4{fill:#fff}.cls-3{fill:none}.cls-4{opacity:.8}.cls-5{opacity:.4}.cls-6{fill:#d1d1d1}</style></defs><g id="Logo"><path class="cls-1" d="M64 18.13a1.81 1.81 0 11-1.8-1.81 1.81 1.81 0 011.8 1.81z"/><path class="cls-2" d="M55.61 15.07h2.47v20.14h-2.47zM61 35.21v-13.7h2.47v13.7zM51.54 31.86a7.56 7.56 0 110-13.46l1.11-2.17a10 10 0 100 17.8zM75.7 32.15a4.68 4.68 0 01-2.15.52 4.73 4.73 0 010-9.45 4.68 4.68 0 012.15.52l1.12-2.19a7.18 7.18 0 100 12.79zM88.54 34.99l2.97.01-6.01-8.43 5.21-5.25-3.51.02-4.74 4.79V14.86h-2.47V35h2.47v-5.36l1.31-1.32 4.77 6.67z"/><path class="cls-1" d="M103.38 24.92a5.53 5.53 0 00-3.59-9.57h-6.46V35h7.07a5.53 5.53 0 003-10.06zm-3.59-7.08a3 3 0 01.26 6.05 3 3 0 01-.42 0h-3.81v-6.05zm.61 14.65h-4.58v-6.07h4.43a2.83 2.83 0 01.41 0 3 3 0 01-.26 6zM120.22 21.13h-2.47v8.36a3.31 3.31 0 01-6.61-.13v-8.23h-2.46v8.23a5.77 5.77 0 0011.49.68v-.05zM128.21 26.73c-1.44-.71-2.32-1.19-2.32-2.19a1.64 1.64 0 011.81-1.64 3.31 3.31 0 012.53 1.1l.32.35 1.31-1.87-.22-.22a5.26 5.26 0 00-3.9-1.55 4 4 0 00-4.28 3.95c0 2.57 2 3.51 3.58 4.27l.1.05c1.49.72 2.46 1.28 2.46 2.51a1.83 1.83 0 01-2.09 1.85 3.8 3.8 0 01-2.87-1.38l-.31-.38-1.33 1.88.2.23a5.64 5.64 0 004.34 1.81c3.32 0 4.5-2.23 4.5-4.15-.04-2.79-2.14-3.81-3.83-4.62z"/><path id="LOGO-2" data-name="LOGO" class="cls-1" d="M35.19 7.07a14.62 14.62 0 00-3.14-1.15C31.8 5 31.58 4.35 31.46 4c-.89-2.26-1.17-2.53-3.47-3a46.42 46.42 0 00-8.45-.31 46.35 46.35 0 00-8.44.39c-2.3.43-2.58.7-3.47 3a18.57 18.57 0 00-.57 1.84 15.21 15.21 0 00-3.3 1.19c-.69.54-3.44 5.24-2.62 6.48s1.72 1.89 2.51 1.32 1.52-6.45 1.52-6.45h1.26a62.12 62.12 0 00-1.09 8v2.99A67.76 67.76 0 006 32.05a1.55 1.55 0 000 .21 2.91 2.91 0 00.12.39 2.64 2.64 0 00.2.37 3.43 3.43 0 00.24.33 3.88 3.88 0 001.47 1 2.64 2.64 0 000 .29v2.3a2.45 2.45 0 004.89 0v-2H25.9v2a2.45 2.45 0 004.89 0v-2.3-.21a3.91 3.91 0 001.68-1 2 2 0 00.24-.33 2.64 2.64 0 00.2-.37 2.4 2.4 0 00.12-.38 1.7 1.7 0 000-.22 68.43 68.43 0 00.81-12.66v-.55-.55-.3c0-.54-.06-1.07-.1-1.58a62.73 62.73 0 00-1.08-7.99h1.12s.77 5.77 1.52 6.41 1.72 0 2.5-1.32-1.93-5.98-2.61-6.52zM16 2.46h7.41c.82 0 .74.43.74 1s.08 1-.74 1H16c-.81 0-.77-.43-.77-1s-.02-1 .77-1zm-2 29.22c-.53.49-4-.24-5-.44s-1 0-1.32-.83v-.11a5.26 5.26 0 010-2.92.41.41 0 01.39-.06c.14 0 .37.09.77.22 2.69.83 5.68 2.81 5.16 4.14zm-4.37-8.31a2.66 2.66 0 01-1.72-.74 3.91 3.91 0 01-.76-1.5c0-.1-.06-.2-.1-.31a2.37 2.37 0 01-.05-.65v-.33c0-.44 0-1 .06-1.61a65.64 65.64 0 011.33-9c.48-1.57.67-2.12 2.58-2.56s15.82-.34 17.19.07a3.33 3.33 0 012.58 2.56A64.6 64.6 0 0132 18.15c0 .6.07 1.15.08 1.6v.32a.91.91 0 010 .17 2.68 2.68 0 010 .45.74.74 0 01-.05.19 3.19 3.19 0 01-.11.33 4.23 4.23 0 01-.81 1.42 2.61 2.61 0 01-1.65.82c-1.46.16-18.03.16-19.83-.08zm15.47 8.31c-.51-1.33 2.48-3.31 5.16-4.14l.64-.19c.35-.09.37-.05.52 0a5.24 5.24 0 010 3 1 1 0 01-.07.15c-.28.62-.28.5-1.25.68s-4.48.99-5 .5z"/><path class="cls-3" d="M7.7 20a.75.75 0 00-.12.39.75.75 0 01.12-.39.83.83 0 01.2-.22.83.83 0 00-.2.22zM30.92 19.71h.13-.06z"/><path class="cls-2" d="M30.92 19.71h.13a.6.6 0 01.21.21.74.74 0 01.11.39v.08l.72-.72L33.84 18c0-.54-.06-1.07-.1-1.58L32 18.15l-1.46 1.45.21.06h.07zM7.59 20.46v-.07A.75.75 0 017.7 20a.83.83 0 01.2-.22.51.51 0 01.17-.07l.16-.05h.1l-2.99-3.11V18.14L7 19.83l.65.65z"/><path class="cls-2" d="M31.37 20.41a.74.74 0 00-.11-.39.6.6 0 00-.21-.21.6.6 0 01.21.21.74.74 0 01.11.39v.08zM30.92 19.71h-.17.07zM7.59 20.46l.01.02-.01-.02zM8 19.75a.44.44 0 01.17-.07l.16-.05-.16.05a.51.51 0 00-.17.07zM8.5 31.49l-1.88 1.87a3.43 3.43 0 01-.25-.36 2.64 2.64 0 01-.2-.37 2.91 2.91 0 01-.12-.39l1.54-1.54a.68.68 0 000 .14.73.73 0 00.19.33.76.76 0 00.32.2zM33 32.27a2.4 2.4 0 01-.12.38 2.64 2.64 0 01-.2.37 2 2 0 01-.24.33l-1.91-1.91.27-.07h.11a.73.73 0 00.29-.23.85.85 0 00.15-.37v-.16z"/><path class="cls-4" d="M31.36 30.59l-.44-3.05a14.18 14.18 0 010-4l.44-3.06v-.08a.74.74 0 00-.11-.39.6.6 0 00-.21-.21H30.74l-.21-.06-8.9-2.34a8.33 8.33 0 00-4.32 0L8.4 19.61h-.1l-.16.05a.44.44 0 00-.17.07.83.83 0 00-.2.22.75.75 0 00-.12.39v.09l.06.43.29 2.67a14.18 14.18 0 010 4l-.46 3.13a.68.68 0 000 .14.73.73 0 00.19.33.65.65 0 00.32.19l.36.1 8.82 2.32a8.55 8.55 0 004.32 0l8.91-2.35.27-.07h.11a.66.66 0 00.29-.23.85.85 0 00.15-.37v-.16z"/><path class="cls-4" d="M19.49 32.9a7.22 7.22 0 01-1.85-.24l-8.42-2.22a.76.76 0 01-.57-.74l.29-1.83a14.7 14.7 0 000-4.68l-.29-1.82a.77.77 0 01.57-.75l8.42-2.22a7.22 7.22 0 011.85-.24 7.3 7.3 0 011.86.24l8.41 2.22a.78.78 0 01.58.75L30 23.19a14.7 14.7 0 000 4.68l.3 1.83a.77.77 0 01-.58.74l-8.41 2.22a7.3 7.3 0 01-1.82.24z"/><g class="cls-5"><path class="cls-6" d="M27.84 23.47a.44.44 0 01-.16 0l-6.83-1.8a5.41 5.41 0 00-2.71 0l-6.84 1.8a.58.58 0 01-.72-.42.59.59 0 01.42-.75l6.83-1.8a6.67 6.67 0 013.32 0L28 22.3a.61.61 0 01.42.73.59.59 0 01-.58.44z"/></g><g class="cls-5"><path class="cls-6" d="M24.83 25.74h-.15l-4.37-1.16a3.22 3.22 0 00-1.63 0l-4.37 1.16a.6.6 0 01-.31-1.17l4.38-1.15a4.22 4.22 0 012.23 0L25 24.57a.58.58 0 01.42.72.59.59 0 01-.59.45z"/></g></g></svg>