<svg width="98" height="98" fill="none" xmlns="http://www.w3.org/2000/svg"><circle cx="49" cy="49" r="49" fill="url(#paint0_linear)"/><g clip-path="url(#clip0)" fill="#F5F5F5"><path d="M68.657 36.082l-1.953-1.954a1.172 1.172 0 00-.829-.343H64.38a5.084 5.084 0 00-5.067-4.765H38.686a5.084 5.084 0 00-5.067 4.765h-1.495c-.31 0-.609.124-.829.343l-1.953 1.954c-.22.22-.343.517-.343.828v5.86a1.172 1.172 0 002.344 0v-5.375l1.266-1.266h1V50.26c4.851.96 26.065.933 30.78 0V36.129h1l1.266 1.267v5.373a1.172 1.172 0 002.344 0V36.91c0-.31-.123-.609-.343-.828zM34.938 66.552v.475c0 1.078.875 1.954 1.953 1.954h3.672a1.955 1.955 0 001.953-1.954v-.43c-7.328-.015-7.035.036-7.578-.045zM55.484 66.598v.43c0 1.077.876 1.953 1.953 1.953h3.672a1.955 1.955 0 001.953-1.954v-.475c-.543.08-.25.03-7.578.046zM33.61 52.64v4.335l7.387 1.28c.43.075.784.383.916.799l1.66 5.2h10.854l1.66-5.2c.133-.416.486-.724.916-.799l7.388-1.28v-4.334c-5.645.9-25.134.901-30.782 0zm18.906 5.755h-7.032a1.172 1.172 0 010-2.344h7.032a1.172 1.172 0 010 2.343z"/><path d="M56.887 64.254h5.55a1.955 1.955 0 001.954-1.953v-2.947l-6.288 1.09-1.216 3.81zM41.113 64.254l-1.216-3.81-6.288-1.09V62.3c0 1.077.877 1.953 1.953 1.953h5.55z"/></g><defs><linearGradient id="paint0_linear" x1="49" y1="62.931" x2="-134.138" y2="62.931" gradientUnits="userSpaceOnUse"><stop stop-color="#9B39AD"/><stop offset="1" stop-color="#FA71CD"/></linearGradient><clipPath id="clip0"><path fill="#fff" transform="translate(29 29)" d="M0 0h40v40H0z"/></clipPath></defs></svg>