<svg width="98" height="98" fill="none" xmlns="http://www.w3.org/2000/svg"><circle cx="49" cy="49" r="49" fill="url(#paint0_linear)"/><path d="M49 29c-7.029 0-12.89 5.662-12.89 12.89 0 2.75.826 5.203 2.412 7.501l9.492 14.811c.46.72 1.513.719 1.972 0l9.533-14.861a12.833 12.833 0 002.372-7.45C61.89 34.783 56.108 29 49 29zm0 18.75a5.866 5.866 0 01-5.86-5.86c0-3.23 2.63-5.859 5.86-5.859 3.23 0 5.86 2.629 5.86 5.86 0 3.23-2.63 5.859-5.86 5.859z" fill="#F5F5F5"/><path d="M58.161 55.93l-5.9 9.225c-1.528 2.381-5.003 2.373-6.523.002l-5.91-9.225c-5.2 1.202-8.406 3.404-8.406 6.037 0 4.567 9.057 7.03 17.578 7.03 8.521 0 17.578-2.463 17.578-7.03 0-2.634-3.21-4.838-8.417-6.04z" fill="#F5F5F5"/><defs><linearGradient id="paint0_linear" x1="49" y1="62.931" x2="-134.138" y2="62.931" gradientUnits="userSpaceOnUse"><stop stop-color="#9B39AD"/><stop offset="1" stop-color="#FA71CD"/></linearGradient></defs></svg>